<svg width="430" height="672" viewBox="0 0 430 672" fill="none" xmlns="http://www.w3.org/2000/svg">
<path d="M143 346.069C76.6 242.469 21.3333 307.236 2 352.569L3 618.569C26.6667 592.069 109.1 556.669 249.5 627.069C389.9 697.469 430 650.736 432.5 618.569C439.333 564.903 448.9 434.169 432.5 340.569C416.1 246.969 365.333 284.236 342 314.569C303.333 368.236 209.4 449.669 143 346.069Z" fill="#912D2D" stroke="#912D2D" stroke-width="16"/>
<path d="M143 73.0695C76.6 -30.5305 21.3333 34.2361 2 79.5695L3 345.569C26.6667 319.069 109.1 283.669 249.5 354.069C389.9 424.469 430 377.736 432.5 345.569C439.333 291.903 448.9 161.169 432.5 67.5695C416.1 -26.0305 365.333 11.2361 342 41.5695C303.333 95.2361 209.4 176.669 143 73.0695Z" fill="#912D2D" stroke="#912D2D" stroke-width="16"/>
</svg>
